<?xml version="1.0" encoding="UTF-8" standalone="no"?><svg xmlns="http://www.w3.org/2000/svg" xmlns:xlink="http://www.w3.org/1999/xlink" clip-rule="evenodd" stroke-miterlimit="10" viewBox="0 0 1024 768"><desc>SVG generated by Keynote</desc><defs></defs><g transform="matrix(1.00, 0.00, -0.00, -1.00, 0.0, 768.0)"><path d="M 0.0 768.0 L 1024.0 768.0 L 1024.0 0.0 L 0.0 0.0 Z M 0.0 768.0 " fill="#FEFFFF"></path><path d="M -11.0 776.0 L 1029.0 776.0 L 1029.0 -15.0 L -11.0 -15.0 Z M -11.0 776.0 " fill="#092A3B"></path><path d="M 0.0 0.0 L 1040.0 0.0 L 1040.0 791.0 L 0.0 791.0 Z M 0.0 0.0 " fill="none" stroke="#000000" stroke-opacity="0.00" stroke-width="2.00" transform="matrix(1.00, 0.00, 0.00, -1.00, -11.0, 776.0)"></path><image xlink:href="7AD15F72ABE4359D7DE50434250F0B74.png" width="1600.00" height="800.00" transform="matrix(0.42, 0.00, -0.00, -0.42, 325.0, 739.0)"></image><image xlink:href="A9AB407F1B5D25719B5D316D4FE98050.png" width="1920.00" height="1437.00" transform="matrix(0.13, 0.00, -0.00, -0.13, 739.0, 324.0)"></image><image xlink:href="9A6326A1483C8444F590ACCDA5A0AC6F.png" width="2500.00" height="2083.00" transform="matrix(0.16, 0.00, -0.00, -0.16, 309.0, 376.0)"></image><image xlink:href="1498FFBA254C15DF8053F6689A0E6661.png" width="2708.00" height="4096.00" transform="matrix(0.09, 0.00, -0.00, -0.09, 29.0, 739.0)"></image><text xml:space="preserve" font-family="PlutoSansCondRegular,Pluto Sans" font-size="24.0" fill="#FEFFFE" transform="matrix(1.00, 0.00, -0.00, -1.00, 100.7, 325.6)">1</text><text xml:space="preserve" font-family="PlutoSansCondRegular,Pluto Sans" font-size="24.0" fill="#FEFFFE" transform="matrix(1.00, 0.00, -0.00, -1.00, 111.0, 325.6)">5</text><text xml:space="preserve" font-family="PlutoSansCondRegular,Pluto Sans" font-size="24.0" fill="#FEFFFE" transform="matrix(1.00, 0.00, -0.00, -1.00, 123.9, 325.6)">0</text><text xml:space="preserve" font-family="PlutoSansCondRegular,Pluto Sans" font-size="24.0" fill="#FEFFFE" transform="matrix(1.00, 0.00, -0.00, -1.00, 138.6, 325.6)">3</text><text xml:space="preserve" font-family="PlutoSansCondRegular,Pluto Sans" font-size="24.0" fill="#FEFFFE" transform="matrix(1.00, 0.00, -0.00, -1.00, 151.7, 325.6)">-</text><text xml:space="preserve" font-family="PlutoSansCondRegular,Pluto Sans" font-size="24.0" fill="#FEFFFE" transform="matrix(1.00, 0.00, -0.00, -1.00, 162.5, 325.6)">1</text><text xml:space="preserve" font-family="PlutoSansCondRegular,Pluto Sans" font-size="24.0" fill="#FEFFFE" transform="matrix(1.00, 0.00, -0.00, -1.00, 172.7, 325.6)">5</text><text xml:space="preserve" font-family="PlutoSansCondRegular,Pluto Sans" font-size="24.0" fill="#FEFFFE" transform="matrix(1.00, 0.00, -0.00, -1.00, 185.5, 325.6)">1</text><text xml:space="preserve" font-family="PlutoSansCondRegular,Pluto Sans" font-size="24.0" fill="#FEFFFE" transform="matrix(1.00, 0.00, -0.00, -1.00, 195.8, 325.6)">7</text><text xml:space="preserve" font-family="PlutoSansCondRegular,Pluto Sans" font-size="24.0" fill="#FEFFFE" transform="matrix(1.00, 0.00, -0.00, -1.00, 642.0, 63.3)">1</text><text xml:space="preserve" font-family="PlutoSansCondRegular,Pluto Sans" font-size="24.0" fill="#FEFFFE" transform="matrix(1.00, 0.00, -0.00, -1.00, 652.3, 63.3)">6</text><text xml:space="preserve" font-family="PlutoSansCondRegular,Pluto Sans" font-size="24.0" fill="#FEFFFE" transform="matrix(1.00, 0.00, -0.00, -1.00, 666.5, 63.3)">4</text><text xml:space="preserve" font-family="PlutoSansCondRegular,Pluto Sans" font-size="24.0" fill="#FEFFFE" transform="matrix(1.00, 0.00, -0.00, -1.00, 680.9, 63.3)">2</text><text xml:space="preserve" font-family="PlutoSansCondRegular,Pluto Sans" font-size="24.0" fill="#FEFFFE" transform="matrix(1.00, 0.00, -0.00, -1.00, 859.8, 416.8)">1</text><text xml:space="preserve" font-family="PlutoSansCondRegular,Pluto Sans" font-size="24.0" fill="#FEFFFE" transform="matrix(1.00, 0.00, -0.00, -1.00, 870.1, 416.8)">7</text><text xml:space="preserve" font-family="PlutoSansCondRegular,Pluto Sans" font-size="24.0" fill="#FEFFFE" transform="matrix(1.00, 0.00, -0.00, -1.00, 881.6, 416.8)">9</text><text xml:space="preserve" font-family="PlutoSansCondRegular,Pluto Sans" font-size="24.0" fill="#FEFFFE" transform="matrix(1.00, 0.00, -0.00, -1.00, 895.8, 416.8)">8</text><text xml:space="preserve" font-family="PlutoSansCondRegular,Pluto Sans" font-size="24.0" fill="#FEFFFE" transform="matrix(1.00, 0.00, -0.00, -1.00, 909.9, 416.8)"> </text><text xml:space="preserve" font-family="PlutoSansCondRegular,Pluto Sans" font-size="24.0" fill="#FEFFFE" transform="matrix(1.00, 0.00, -0.00, -1.00, 914.9, 416.8)">-</text><text xml:space="preserve" font-family="PlutoSansCondRegular,Pluto Sans" font-size="24.0" fill="#FEFFFE" transform="matrix(1.00, 0.00, -0.00, -1.00, 926.0, 416.8)"> </text><text xml:space="preserve" font-family="PlutoSansCondRegular,Pluto Sans" font-size="24.0" fill="#FEFFFE" transform="matrix(1.00, 0.00, -0.00, -1.00, 931.0, 416.8)">1</text><text xml:space="preserve" font-family="PlutoSansCondRegular,Pluto Sans" font-size="24.0" fill="#FEFFFE" transform="matrix(1.00, 0.00, -0.00, -1.00, 941.2, 416.8)">8</text><text xml:space="preserve" font-family="PlutoSansCondRegular,Pluto Sans" font-size="24.0" fill="#FEFFFE" transform="matrix(1.00, 0.00, -0.00, -1.00, 955.4, 416.8)">0</text><text xml:space="preserve" font-family="PlutoSansCondRegular,Pluto Sans" font-size="24.0" fill="#FEFFFE" transform="matrix(1.00, 0.00, -0.00, -1.00, 970.1, 416.8)">5</text><text xml:space="preserve" font-family="PlutoSansCondRegular,Pluto Sans" font-size="24.0" fill="#FEFFFE" transform="matrix(1.00, 0.00, -0.00, -1.00, 839.5, 104.7)">1</text><text xml:space="preserve" font-family="PlutoSansCondRegular,Pluto Sans" font-size="24.0" fill="#FEFFFE" transform="matrix(1.00, 0.00, -0.00, -1.00, 849.8, 104.7)">8</text><text xml:space="preserve" font-family="PlutoSansCondRegular,Pluto Sans" font-size="24.0" fill="#FEFFFE" transform="matrix(1.00, 0.00, -0.00, -1.00, 864.0, 104.7)">5</text><text xml:space="preserve" font-family="PlutoSansCondRegular,Pluto Sans" font-size="24.0" fill="#FEFFFE" transform="matrix(1.00, 0.00, -0.00, -1.00, 877.0, 104.7)">7</text></g></svg>