<svg id="Layer_1" xmlns="http://www.w3.org/2000/svg" viewBox="0 0 60 60"><style>.totoroko0{fill:#AEB8BE;} .totoroko1{fill:#F25F60;} .totoroko2{fill:#FFFFFF;} .totoroko3{fill:#13E0D1;}</style><path class="totoroko0" d="M42.5 27.5c.3 0 1.4.3 3.3-.8 1.5-.9 4-6.6 2.5-8.3-1.4-1.7-6.6 2.3-7.9 3.9-1.1 1.4-.5 2.7-.4 3-2.8-2.1-6-3.4-9.5-3.4-3.3 0-6.5 1.2-9.4 3.1.2-.3.8-1.5-.2-3-1.2-1.7-6.2-5.9-7.7-4.3-1.5 1.7.6 7.5 2.1 8.5 1.7 1.1 2.8 1 3.2.9-5 4.6-8.5 11.4-8.5 17.7v.6c.9 1.1 1.9 2.2 2.9 3.2 1.6-5.3 8.5-11.1 16.9-11.1 8.4 0 15.4 5.9 16.9 11.2 1.1-.9 2-2 2.9-3.1v-.9c.1-6-2.7-12.7-7.1-17.2z"/><path class="totoroko1" d="M40.3 49.7c0 .5-.7.9-1.5.9s-1.5-.4-1.5-.9.7-.9 1.5-.9 1.5.4 1.5.9"/><circle class="totoroko2" cx="22.9" cy="32.7" r="2.9"/><circle class="totoroko2" cx="37" cy="32.7" r="2.9"/><circle cx="24" cy="47.3" r="1.5"/><circle cx="36" cy="47.3" r="1.5"/><path d="M33.8 44.1c.7.1 4.4 1.9 4.4 1.9l.4-.3c0-1.1-4.8-1.6-4.8-1.6z"/><circle cx="22.9" cy="32.6" r=".9"/><circle cx="37" cy="32.6" r=".9"/><path d="M30.2 34.9c1.2 0 1.4-1.6 1.4-1.6-1.7-1.5-3.2 0-3.2 0 .6 1.2.8 1.7 1.8 1.6zM47.5 48.1c-.2.2-.5.4-.7.7l.7-.7z"/><path d="M29.9 37.5c-8.3 0-15.3 5.8-16.9 11.1.7.7 1.5 1.3 2.3 1.9.3-.7.9-1 .9-1 1.7-.9 3.1-2.2 4.3-3.5h.1s3.8-1.8 4.4-1.9c0 0-2.1.2-3.5.7 1.6-2.1 2.7-4.3 3.3-5.7 0 1.3.3 3.4 2.9 4.3 3.8 1.3 4.4 1.3 4.4 1.3l-2-1.9c2.4.9 5.8 1.6 10.4 2 .3.3 2.9 3.3 4.3 5.8.8-.5 1.5-1.1 2.2-1.7-1.7-5.5-8.7-11.4-17.1-11.4zM12.4 48l.1.1-.1-.1zM13 48.6c-.2-.2-.4-.3-.5-.5.2.2.4.3.5.5z"/><path class="totoroko3" d="M30 4.8c13.9 0 25.2 11.3 25.2 25.2S43.9 55.2 30 55.2 4.8 43.9 4.8 30 16.1 4.8 30 4.8M30 0C13.4 0 0 13.4 0 30s13.4 30 30 30 30-13.4 30-30S46.6 0 30 0z"/></svg>
