<?xml version="1.0" encoding="utf-8"?>
<!-- Generator: Adobe Illustrator 16.0.4, SVG Export Plug-In . SVG Version: 6.00 Build 0)  -->
<!DOCTYPE svg PUBLIC "-//W3C//DTD SVG 1.1//EN" "http://www.w3.org/Graphics/SVG/1.1/DTD/svg11.dtd">
<svg version="1.1" id="Layer_1" xmlns="http://www.w3.org/2000/svg" xmlns:xlink="http://www.w3.org/1999/xlink" x="0px" y="0px"
	 width="252px" height="250px" viewBox="0 0 252 250" enable-background="new 0 0 252 250" xml:space="preserve">
<circle fill="#FFFFFF" cx="127" cy="128" r="117.5"/>
<path d="M188.74,231.514c0,0,12.443-13.029,10.531-26.145c-0.811-5.53-2.265-8.333-3.674-9.727c0.029-3.017-0.305-5.908-1.181-8.425
	l1.149,0.002c0,0-8.553-61.278-90.503-49.43c0,0-6.34,9.267-3.44,19.771c-11.243,2.575-41.578,11.399-47.55,32.681
	c-7.367,26.224,10.39,31.018,10.39,31.018c-3.53-10.592,3.803-15.136,3.803-15.136c19.708-10.77,30.76-32.49,35.212-43.184
	c-0.208,5.25,1.124,14.31,11.926,17.968c15.632,5.296,18.336,5.304,18.336,5.304l-8.48-8.004
	c10.048,3.758,23.994,6.689,43.177,8.098c1.387,1.541,20.322,22.77,21.345,33.37l-0.035,0.4l-1.01,11.438H188.74L188.74,231.514z
	 M106.887,197.311c0,3.447-2.794,6.242-6.24,6.242c-3.442,0-6.243-2.795-6.243-6.242c0-3.445,2.8-6.24,6.244-6.24
	C104.093,191.07,106.888,193.864,106.887,197.311 M156.614,197.311c0,3.447-2.794,6.242-6.242,6.242
	c-3.447,0-6.242-2.795-6.242-6.242c0-3.445,2.795-6.24,6.242-6.24C153.822,191.07,156.614,193.864,156.614,197.311"/>
<path fill="#AEB8BE" d="M177.454,115.043c-0.002,0-0.003,0-0.005,0l0.002-0.003C177.452,115.041,177.453,115.042,177.454,115.043
	c1.214,0.179,5.897,1.326,13.513-3.121c6.29-3.667,16.493-27.34,10.54-34.62c-5.729-7.009-27.333,9.342-32.772,16.217
	c-4.67,5.897-2.299,11.017-1.529,12.356l-0.007,0.006c-11.581-8.817-24.978-14.236-39.255-14.236v0.001
	c-13.622,0-26.977,4.933-38.919,13.044c0.891-1.416,3.34-6.32-0.915-12.335C83.037,85.2,62.35,67.714,56.25,74.404
	c-6.335,6.953,2.58,31.134,8.662,35.137c6.984,4.598,11.605,4.028,13.112,3.862c-20.792,18.979-35.142,47.458-35.142,73.392
	c0,16.012,5.47,28.834,14.55,38.672c-2.374-4.338-3.66-8.97-3.66-13.793c0-24.043,31.965-55.135,71.4-55.135
	c39.43,0,71.395,31.09,71.395,55.134c0,7.146-2.822,13.89-7.825,19.841c11.676-10.408,18.718-25.192,18.718-44.721
	C207.458,161.598,195.736,133.998,177.454,115.043z"/>
<path fill="#F25F60" d="M168.21,207.139c0,1.947-2.783,3.529-6.22,3.529c-3.44,0-6.223-1.582-6.223-3.529
	c0-1.953,2.781-3.533,6.223-3.533C165.427,203.605,168.21,205.186,168.21,207.139"/>
<path d="M104.478,183.938c0,0-20.06,2.018-19.824,6.559l1.498,1.345C86.152,191.84,101.736,184.525,104.478,183.938
	 M141.141,183.938c0,0,20.055,2.018,19.819,6.559l-1.496,1.345C159.464,191.84,143.882,184.525,141.141,183.938"/>
<path fill="#FFFFFF" d="M107.856,136.53c0,6.59-5.346,11.938-11.934,11.938c-6.594,0-11.94-5.35-11.94-11.938
	c0-6.591,5.347-11.938,11.94-11.938C102.512,124.593,107.856,129.941,107.856,136.53"/>
<path d="M99.787,136.363c0,2.043-1.657,3.697-3.7,3.697c-2.044,0-3.697-1.654-3.697-3.697s1.653-3.697,3.697-3.697
	C98.13,132.666,99.787,134.32,99.787,136.363"/>
<path fill="#FFFFFF" d="M166.357,136.53c0,6.59-5.349,11.938-11.938,11.938c-6.59,0-11.938-5.35-11.938-11.938
	c0-6.591,5.349-11.938,11.939-11.938c6.592,0,11.938,5.35,11.938,11.938"/>
<path d="M158.286,136.363c0,2.043-1.655,3.697-3.695,3.697c-2.045,0-3.696-1.654-3.696-3.697s1.651-3.697,3.697-3.697
	c2.04,0,3.696,1.654,3.696,3.697 M119.12,139.22c0,0,6.052-6.388,13.112,0c0,0-1.088,6.544-5.886,6.724
	C122.019,146.111,121.391,143.971,119.12,139.22"/>
<path fill="#13E0D1" d="M125.5,21C183.12,21,230,67.878,230,125.5c0,57.62-46.88,104.5-104.5,104.5C67.878,230,21,183.12,21,125.5
	C21,67.878,67.878,21,125.5,21 M125.5,1C56.74,1,1,56.74,1,125.5S56.74,250,125.5,250S250,194.26,250,125.5S194.26,1,125.5,1z"/>
</svg>
