<?xml version="1.0" encoding="utf-8"?>
<!-- Generator: Adobe Illustrator 19.1.0, SVG Export Plug-In . SVG Version: 6.00 Build 0)  -->
<svg version="1.1" id="Layer_1" xmlns="http://www.w3.org/2000/svg" xmlns:xlink="http://www.w3.org/1999/xlink" x="0px" y="0px"
	 viewBox="-365 277 60 60" style="enable-background:new -365 277 60 60;" xml:space="preserve">
<style type="text/css">
	.st0{fill:#AEB8BE;}
	.st1{fill:#F25F60;}
	.st2{fill:#FFFFFF;}
	.st3{fill:#13E0D1;}
</style>
<path class="st0" d="M-322.5,304.5c0.3,0,1.4,0.3,3.3-0.8c1.5-0.9,4-6.6,2.5-8.3c-1.4-1.7-6.6,2.3-7.9,3.9c-1.1,1.4-0.5,2.7-0.4,3
	c-2.8-2.1-6-3.4-9.5-3.4c-3.3,0-6.5,1.2-9.4,3.1c0.2-0.3,0.8-1.5-0.2-3c-1.2-1.7-6.2-5.9-7.7-4.3c-1.5,1.7,0.6,7.5,2.1,8.5
	c1.7,1.1,2.8,1,3.2,0.9c-5,4.6-8.5,11.4-8.5,17.7v0.6c0.9,1.1,1.9,2.2,2.9,3.2c1.6-5.3,8.5-11.1,16.9-11.1c8.4,0,15.4,5.9,16.9,11.2
	c1.1-0.9,2-2,2.9-3.1v-0.9C-315.3,315.7-318.1,309-322.5,304.5z"/>
<path class="st1" d="M-324.7,326.7c0,0.5-0.7,0.9-1.5,0.9c-0.8,0-1.5-0.4-1.5-0.9s0.7-0.9,1.5-0.9
	C-325.4,325.8-324.7,326.2-324.7,326.7"/>
<circle class="st2" cx="-342.1" cy="309.7" r="2.9"/>
<circle class="st2" cx="-328" cy="309.7" r="2.9"/>
<circle cx="-341" cy="324.3" r="1.5"/>
<circle cx="-329" cy="324.3" r="1.5"/>
<path d="M-331.2,321.1c0.7,0.1,4.4,1.9,4.4,1.9l0.4-0.3C-326.4,321.6-331.2,321.1-331.2,321.1z"/>
<circle cx="-342.1" cy="309.6" r="0.9"/>
<circle cx="-328" cy="309.6" r="0.9"/>
<path d="M-334.8,311.9c1.2,0,1.4-1.6,1.4-1.6c-1.7-1.5-3.2,0-3.2,0C-336,311.5-335.8,312-334.8,311.9z M-317.5,325.1
	c-0.2,0.2-0.5,0.4-0.7,0.7L-317.5,325.1z"/>
<path d="M-335.1,314.5c-8.3,0-15.3,5.8-16.9,11.1c0.7,0.7,1.5,1.3,2.3,1.9c0.3-0.7,0.9-1,0.9-1c1.7-0.9,3.1-2.2,4.3-3.5h0.1
	c0,0,3.8-1.8,4.4-1.9c0,0-2.1,0.2-3.5,0.7c1.6-2.1,2.7-4.3,3.3-5.7c0,1.3,0.3,3.4,2.9,4.3c3.8,1.3,4.4,1.3,4.4,1.3l-2-1.9
	c2.4,0.9,5.8,1.6,10.4,2c0.3,0.3,2.9,3.3,4.3,5.8c0.8-0.5,1.5-1.1,2.2-1.7C-319.7,320.4-326.7,314.5-335.1,314.5z M-352.6,325
	l0.1,0.1L-352.6,325z M-352,325.6c-0.2-0.2-0.4-0.3-0.5-0.5C-352.3,325.3-352.1,325.4-352,325.6z"/>
<path class="st3" d="M-335,281.8c13.9,0,25.2,11.3,25.2,25.2s-11.3,25.2-25.2,25.2s-25.2-11.3-25.2-25.2S-348.9,281.8-335,281.8
	 M-335,277c-16.6,0-30,13.4-30,30s13.4,30,30,30s30-13.4,30-30S-318.4,277-335,277z"/>
</svg>
