<svg xmlns="http://www.w3.org/2000/svg" width="252" height="250" viewBox="0 0 252 250"><path d="M188.74 231.514s12.444-13.03 10.532-26.145c-.81-5.53-2.264-8.333-3.674-9.727.03-3.015-.304-5.908-1.18-8.423l1.15.002s-8.552-61.28-90.504-49.43c0 0-6.34 9.265-3.44 19.77-11.243 2.576-41.578 11.4-47.55 32.68-7.367 26.224 10.39 31.018 10.39 31.018-3.53-10.592 3.803-15.136 3.803-15.136 19.708-10.77 30.76-32.49 35.212-43.184-.208 5.25 1.124 14.31 11.926 17.968 15.632 5.296 18.336 5.304 18.336 5.304l-8.48-8.004c10.05 3.758 23.994 6.69 43.178 8.098 1.386 1.54 20.323 22.768 21.344 33.37l-.035.4-1.01 11.438zM106.887 197.31c0 3.448-2.794 6.243-6.24 6.243-3.442 0-6.243-2.795-6.243-6.242s2.8-6.24 6.244-6.24c3.445 0 6.24 2.793 6.24 6.24M156.614 197.31c0 3.448-2.793 6.243-6.242 6.243-3.447 0-6.242-2.795-6.242-6.242s2.795-6.24 6.242-6.24c3.45 0 6.242 2.793 6.242 6.24"/><path fill="#F25F60" d="M168.21 207.138c0 1.948-2.783 3.53-6.22 3.53-3.44 0-6.222-1.582-6.222-3.53 0-1.952 2.782-3.532 6.222-3.532 3.437 0 6.22 1.58 6.22 3.532"/><path d="M104.478 183.938s-20.06 2.016-19.824 6.557l1.498 1.345s15.584-7.314 18.326-7.902M141.14 183.938s20.056 2.016 19.82 6.557l-1.496 1.345s-15.582-7.314-18.324-7.902"/><path fill="#AEB8BE" d="M127.944 91.647c-43.916 0-85.062 51.232-85.062 95.148 0 16.012 5.47 28.834 14.55 38.672-2.374-4.338-3.66-8.97-3.66-13.793 0-24.043 31.965-55.135 71.4-55.135 39.43 0 71.395 31.09 71.395 55.134 0 7.146-2.824 13.89-7.827 19.84 11.676-10.408 18.718-25.193 18.718-44.72 0-43.915-35.598-95.147-79.514-95.147M167.42 106.227s-4.13-5.834 1.314-12.708c5.44-6.875 27.044-23.226 32.773-16.217 5.953 7.28-4.25 30.953-10.54 34.62-7.885 4.605-12.64 3.208-13.64 3.103-1.002-.104-9.907-8.8-9.907-8.8M88.735 105.116s4.436-5.604-.626-12.76C83.037 85.2 62.35 67.714 56.25 74.404c-6.335 6.953 2.58 31.134 8.662 35.137 7.626 5.02 12.446 3.878 13.457 3.83 1.008-.046 10.365-8.254 10.365-8.254"/><path fill="#fff" d="M107.856 136.53c0 6.59-5.346 11.94-11.934 11.94-6.594 0-11.94-5.35-11.94-11.94s5.347-11.937 11.94-11.937c6.59 0 11.934 5.348 11.934 11.938"/><path d="M99.787 136.363c0 2.043-1.657 3.697-3.7 3.697-2.044 0-3.697-1.654-3.697-3.697s1.653-3.697 3.697-3.697c2.043 0 3.7 1.654 3.7 3.697"/><path fill="#fff" d="M166.358 136.53c0 6.59-5.348 11.94-11.937 11.94-6.59 0-11.938-5.35-11.938-11.94s5.348-11.937 11.94-11.937c6.59 0 11.936 5.348 11.936 11.938"/><path d="M158.286 136.363c0 2.043-1.655 3.697-3.695 3.697-2.045 0-3.697-1.654-3.697-3.697s1.652-3.697 3.698-3.697c2.04 0 3.696 1.654 3.696 3.697M119.12 139.22s6.052-6.388 13.112 0c0 0-1.087 6.543-5.886 6.724-4.327.167-4.955-1.973-7.226-6.723"/><path fill="#13E0D1" d="M125.5 21C183.12 21 230 67.878 230 125.5c0 57.62-46.88 104.5-104.5 104.5C67.878 230 21 183.12 21 125.5 21 67.878 67.878 21 125.5 21m0-20C56.74 1 1 56.74 1 125.5 1 194.26 56.74 250 125.5 250S250 194.26 250 125.5C250 56.74 194.26 1 125.5 1z"/></svg>