<?xml version="1.0" encoding="utf-8"?>
<!-- Generator: Adobe Illustrator 21.0.2, SVG Export Plug-In . SVG Version: 6.00 Build 0)  -->
<svg version="1.1" id="Layer_1" xmlns="http://www.w3.org/2000/svg" xmlns:xlink="http://www.w3.org/1999/xlink" x="0px" y="0px"
	 viewBox="0 0 22 26" style="enable-background:new 0 0 22 26;" xml:space="preserve">
<style type="text/css">
	.st0{fill:#2B9890;}
	.st1{fill:#2EC2A5;}
	.st2{fill:#F3AB70;}
	.st3{fill:#FAD5BB;}
	.st4{fill:#597EA1;}
	.st5{fill:#314952;}
	.st6{fill:#89AFDC;}
	.st7{fill:#FDC2C9;}
	.st8{fill:#E08253;}
</style>
<path class="st0" d="M6,0h8v1h1v1h1v1h1v1h1v1h1v2h1v4h-1v1h-1V9h1V8h-1V6h-1V5h-1V4h-1V3h-1V2h-1V1h-1v1h-1V1h-1v1H9V1H8v1H7V1H6V0
	z"/>
<path class="st0" d="M5,1h1v1H5V1z"/>
<path class="st1" d="M6,1h1v1H6V1z"/>
<path class="st1" d="M8,1h1v1H8V1z"/>
<path class="st1" d="M10,1h1v1h-1V1z"/>
<path class="st1" d="M12,1h1v1h-1V1z"/>
<path class="st0" d="M4,2h1v1H4V2z"/>
<path class="st1" d="M5,2h1v1H5V2z"/>
<path class="st0" d="M6,2h1v1H6V2z"/>
<path class="st1" d="M7,2h1v1H7V2z"/>
<path class="st0" d="M8,2h1v1H8V2z"/>
<path class="st1" d="M9,2h1v1H9V2z"/>
<path class="st0" d="M10,2h1v1h1V2h1v1h1v1h1v1h1v1h1v2h1v1h-1v1h-2V9h-1V8h-1V7h-1V6h-1V5h-1V4H9V3h1V2z"/>
<path class="st1" d="M11,2h1v1h-1V2z"/>
<path class="st1" d="M13,2h1v1h-1V2z"/>
<path class="st1" d="M3,3h2v1H4v1H3v1h1V5h1V4h1V3h1v1h1V3h1v1h1v1h1v1h1v1h1v1h1v1h1v1h1v2h-1v-1h-1v-1h-1V9h-2V7h-1V6H5v1H4v3H3V9
	H2v5h1v1h1v1H2v-1H1v-1H0V6h1V5h1V4h1V3z"/>
<path class="st0" d="M5,3h1v1H5V3z"/>
<path class="st0" d="M7,3h1v1H7V3z"/>
<path class="st1" d="M14,3h1v1h-1V3z"/>
<path class="st0" d="M4,4h1v1H4V4z"/>
<path class="st1" d="M15,4h1v1h-1V4z"/>
<path class="st0" d="M3,5h1v1H3V5z"/>
<path class="st1" d="M13,5h1v1h-1V5z"/>
<path class="st1" d="M16,5h1v1h-1V5z"/>
<path class="st2" d="M5,6h5v1h1v2h-1V8H9V7H5V6z"/>
<path class="st1" d="M14,6h1v1h-1V6z"/>
<path class="st1" d="M17,6h1v2h-1V6z"/>
<path class="st2" d="M4,7h1v1H4V7z"/>
<path class="st3" d="M5,7h4v1h1v1h1v2h1v1h2v2h1v1h-1v1H6v-1H5v-1h1v-2h2v-2H5v1h1v1H4v-1H3v1H2v-2h2V8h1V7z"/>
<path class="st1" d="M15,7h1v1h-1V7z"/>
<path class="st4" d="M5,8h3v1H5V8z"/>
<path class="st1" d="M18,8h1v1h-1V8z"/>
<path class="st0" d="M2,9h1v1H2V9z"/>
<path class="st2" d="M11,9h2v1h-2V9z"/>
<path class="st1" d="M17,9h1v1h-1V9z"/>
<path class="st1" d="M20,9h1v3h1v6h-1v-5h-1v3h-1v1h-1v1h-1v1h-2v1h-3v1h4v1H9v1H8v-2h2v-1h1v-1h1v-2h1v-1h1v-1h1v-1h1v-1h1v-1h2v-1
	h1V9z"/>
<path class="st5" d="M5,10h3v1H7v1H6v-1H5V10z"/>
<path class="st5" d="M11,10h3v1h-1v1h-1v-1h-1V10z"/>
<path class="st3" d="M16,10h2v2h-1v-1h-1V10z"/>
<path class="st2" d="M3,11h1v1H3V11z"/>
<path class="st6" d="M7,11h1v1H7V11z"/>
<path class="st4" d="M13,11h1v1h-1V11z"/>
<path class="st3" d="M14,11h1v1h-1V11z"/>
<path class="st2" d="M16,11h1v1h-1V11z"/>
<path class="st0" d="M2,12h1v1h1v1h1v1h1v1h2v2H6v-1H5v-1H4v-1H3v-1H2V12z"/>
<path class="st3" d="M3,12h1v1H3V12z"/>
<path class="st7" d="M4,12h2v2H4V12z"/>
<path class="st7" d="M14,12h2v2h-2V12z"/>
<path class="st3" d="M16,12h1v1h-1V12z"/>
<path class="st8" d="M11,13h1v1h-1V13z"/>
<path class="st0" d="M20,13h1v5h-1v1h-2v1h-2v1h-4v-1h3v-1h2v-1h1v-1h1v-1h1V13z"/>
<path class="st8" d="M8,14h3v1H8V14z"/>
<path class="st1" d="M4,16h1v1H4V16z"/>
<path class="st8" d="M8,16h5v1h-1v2h-1v-1h-1v-1H8V16z"/>
<path class="st1" d="M5,17h1v1H5V17z"/>
<path class="st2" d="M8,17h2v1h1v1H9v-1H8V17z"/>
<path class="st4" d="M6,18h3v1h2v1h-1v1H8v2h1v1h1v-1H9v-1h5v3h-1v1H7v-1H6v-3H5v-1H4v-1h1v-1h1V18z"/>
<path class="st1" d="M20,18h1v1h-1V18z"/>
<path class="st1" d="M18,19h2v1h-2V19z"/>
<path class="st1" d="M16,20h2v1h-2V20z"/>
<path class="st2" d="M4,21h1v1H4V21z"/>
<path class="st3" d="M4,22h1v4H4V22z"/>
<path class="st2" d="M5,22h1v4H5V22z"/>
<path class="st2" d="M14,22h2v1h-1v3h-1V22z"/>
<path class="st1" d="M9,23h1v1H9V23z"/>
<path class="st3" d="M15,23h1v3h-1V23z"/>
<path class="st6" d="M6,25h1v1H6V25z"/>
<path class="st6" d="M13,25h1v1h-1V25z"/>
</svg>
