<?xml version="1.0" encoding="utf-8"?>
<!-- Generator: Adobe Illustrator 16.0.4, SVG Export Plug-In . SVG Version: 6.00 Build 0)  -->
<!DOCTYPE svg PUBLIC "-//W3C//DTD SVG 1.1//EN" "http://www.w3.org/Graphics/SVG/1.1/DTD/svg11.dtd">
<svg version="1.1" id="Layer_1" xmlns="http://www.w3.org/2000/svg" xmlns:xlink="http://www.w3.org/1999/xlink" x="0px" y="0px"
	 width="300px" height="290px" viewBox="0 0 300 290" enable-background="new 0 0 300 290" xml:space="preserve">
<g>
	<g>
		<path d="M240.794,256.334c0,0,17.857-18.758,15.11-37.635c-1.159-7.968-3.246-11.997-5.272-14.002
			c0.04-4.339-0.436-8.504-1.693-12.127c0.551,0.002,1.097,0.006,1.653,0.006c0,0-12.274-88.228-129.896-71.166
			c0,0-9.097,13.338-4.94,28.465c-16.131,3.707-59.667,16.416-68.242,47.044c-10.572,37.754,14.914,44.652,14.914,44.652
			c-5.067-15.248,5.459-21.781,5.459-21.781c28.283-15.513,44.144-46.783,50.535-62.177c-0.299,7.564,1.612,20.609,17.113,25.874
			c22.438,7.623,26.323,7.636,26.323,7.636l-12.172-11.529c14.417,5.414,34.431,9.635,61.97,11.661
			c1.986,2.216,29.17,32.775,30.631,48.042l-0.046,0.575L240.794,256.334z"/>
		<ellipse cx="114.356" cy="207.095" rx="8.958" ry="8.986"/>
		<ellipse cx="185.72" cy="207.095" rx="8.958" ry="8.986"/>
		<ellipse fill="#F15D5E" cx="202.395" cy="221.24" rx="8.93" ry="5.082"/>
		<path d="M119.852,187.843c0,0-28.784,2.904-28.446,9.438l2.147,1.936C93.553,199.217,115.917,188.691,119.852,187.843z"/>
		<path d="M172.472,187.843c0,0,28.784,2.904,28.446,9.438l-2.148,1.936C198.77,199.217,176.406,188.691,172.472,187.843z"/>
	</g>
	<path fill="#ADB8BF" d="M153.533,54.976c-63.028,0-122.085,73.76-122.085,136.98c0,23.049,7.855,41.509,20.884,55.67
		c-3.403-6.238-5.25-12.913-5.25-19.852c0-34.618,45.877-79.381,102.47-79.381c56.594,0,102.472,44.763,102.472,79.381
		c0,10.287-4.052,19.996-11.23,28.56c16.757-14.98,26.863-36.27,26.863-64.378C267.657,128.735,216.562,54.976,153.533,54.976z"/>
	<g>
		<path fill="#ADB8BF" d="M210.188,75.967c0,0-5.927-8.401,1.885-18.296c7.812-9.896,38.814-33.436,47.037-23.345
			c8.546,10.485-6.099,44.559-15.122,49.841c-11.318,6.627-18.142,4.616-19.582,4.467C222.967,88.484,210.188,75.967,210.188,75.967
			z"/>
		<path fill="#ADB8BF" d="M97.261,74.37c0,0,6.368-8.069-0.903-18.371c-7.271-10.302-36.969-35.479-45.72-25.845
			c-9.094,10.008,3.706,44.823,12.433,50.583c10.947,7.225,17.868,5.587,19.314,5.514C83.831,86.181,97.261,74.37,97.261,74.37z"/>
	</g>
	<g>
		<g>
			<ellipse fill="#FFFFFF" cx="107.571" cy="119.594" rx="17.131" ry="17.183"/>
			<ellipse cx="107.812" cy="119.351" rx="5.308" ry="5.325"/>
		</g>
		<g>
			<ellipse fill="#FFFFFF" cx="191.535" cy="119.594" rx="17.13" ry="17.183"/>
			<ellipse cx="191.776" cy="119.351" rx="5.308" ry="5.325"/>
		</g>
		<path d="M140.867,123.465c0,0,8.686-9.196,18.82,0c0,0-1.557,9.418-8.446,9.681C145.029,133.383,144.124,130.303,140.867,123.465z
			"/>
	</g>
</g>
</svg>
