<?xml version="1.0" encoding="UTF-8" standalone="no"?><svg xmlns="http://www.w3.org/2000/svg" xmlns:xlink="http://www.w3.org/1999/xlink" clip-rule="evenodd" stroke-miterlimit="10" viewBox="0 0 1024 768"><desc>SVG generated by Keynote</desc><defs></defs><g transform="matrix(1.00, 0.00, -0.00, -1.00, 0.0, 768.0)"><path d="M 0.0 768.0 L 1024.0 768.0 L 1024.0 0.0 L 0.0 0.0 Z M 0.0 768.0 " fill="#FEFFFF"></path><path d="M -11.0 776.0 L 1029.0 776.0 L 1029.0 -15.0 L -11.0 -15.0 Z M -11.0 776.0 " fill="#092A3B"></path><path d="M 0.0 0.0 L 1040.0 0.0 L 1040.0 791.0 L 0.0 791.0 Z M 0.0 0.0 " fill="none" stroke="#000000" stroke-opacity="0.00" stroke-width="2.00" transform="matrix(1.00, 0.00, 0.00, -1.00, -11.0, 776.0)"></path><image xlink:href="../../272A7DDD-C4D2-4C1A-8E13-18B68D2CFE37/assets/2722AB1C3F9BE5AE45EF3F6390752F01.png" width="1280.00" height="720.00" transform="matrix(0.80, 0.00, -0.00, -0.80, 0.0, 672.0)"></image><text xml:space="preserve" font-family="PlutoSansCondMedium,Pluto Sans" font-size="200.0" fill="#FEFFFF" transform="matrix(1.00, 0.00, -0.00, -1.00, 183.6, 313.7)">t</text><text xml:space="preserve" font-family="PlutoSansCondMedium,Pluto Sans" font-size="200.0" fill="#FEFFFF" transform="matrix(1.00, 0.00, -0.00, -1.00, 271.0, 313.7)">h</text><text xml:space="preserve" font-family="PlutoSansCondMedium,Pluto Sans" font-size="200.0" fill="#FEFFFF" transform="matrix(1.00, 0.00, -0.00, -1.00, 388.8, 313.7)">a</text><text xml:space="preserve" font-family="PlutoSansCondMedium,Pluto Sans" font-size="200.0" fill="#FEFFFF" transform="matrix(1.00, 0.00, -0.00, -1.00, 492.6, 313.7)">n</text><text xml:space="preserve" font-family="PlutoSansCondMedium,Pluto Sans" font-size="200.0" fill="#FEFFFF" transform="matrix(1.00, 0.00, -0.00, -1.00, 610.4, 313.7)">k</text><text xml:space="preserve" font-family="PlutoSansCondMedium,Pluto Sans" font-size="200.0" fill="#FEFFFF" transform="matrix(1.00, 0.00, -0.00, -1.00, 717.4, 313.7)">s</text><text xml:space="preserve" font-family="PlutoSansCondMedium,Pluto Sans" font-size="200.0" fill="#FEFFFF" transform="matrix(1.00, 0.00, -0.00, -1.00, 808.2, 313.7)">!</text></g></svg>